<svg xmlns="http://www.w3.org/2000/svg" viewBox="0 0 65.441 65.441"><path d="M65.441 34.881c0 16.616-13.472 30.086-30.09 30.086S5.262 51.497 5.262 34.881 18.733 4.795 35.351 4.795s30.09 13.47 30.09 30.086z" fill="#edc951"/><path d="M45.647 23.776a3.64 3.64 0 1 1-7.28-.002 3.64 3.64 0 0 1 7.28.002zM24.718 23.776a3.64 3.64 0 1 1-7.28-.001 3.64 3.64 0 0 1 7.28.001zM34.374 50.737h-5.055c-6.403 0-11.611-5.145-11.611-11.469a1.5 1.5 0 1 1 3 0c0 4.749 3.782 8.469 8.611 8.469h5.055c4.828 0 8.611-3.658 8.611-8.329a1.5 1.5 0 1 1 3 0c0 6.353-5.1 11.329-11.611 11.329z"/><path d="M31.59 63.646C14.171 63.646 0 49.477 0 32.06 0 14.644 14.171.475 31.59.475c17.418 0 31.59 14.169 31.59 31.585 0 17.417-14.172 31.586-31.59 31.586zm0-60.171C15.825 3.475 3 16.298 3 32.06c0 15.763 12.825 28.587 28.59 28.587 15.764 0 28.59-12.824 28.59-28.587 0-15.762-12.826-28.585-28.59-28.585z"/></svg>